<svg width="164.706" height="37.931" xmlns="http://www.w3.org/2000/svg">
 <defs>
  <style>.cls-1{fill:#00c9db;}.cls-2{fill:url(#New_Gradient_Swatch_61);}.cls-3{fill:url(#New_Gradient_Swatch_8);}.cls-4{fill:url(#New_Gradient_Swatch_8-2);}.cls-5{fill:url(#New_Gradient_Swatch_16);}.cls-6{fill:url(#New_Gradient_Swatch_16-2);}.cls-7{fill:url(#New_Gradient_Swatch_16-3);}.cls-8{fill:url(#New_Gradient_Swatch_8-3);}.cls-9{fill:url(#New_Gradient_Swatch_16-4);}.cls-10{fill:url(#New_Gradient_Swatch_8-4);}.cls-11{fill:url(#New_Gradient_Swatch_16-5);}.cls-12{fill:url(#New_Gradient_Swatch_8-5);}.cls-13{fill:url(#New_Gradient_Swatch_8-6);}.cls-14{fill:url(#New_Gradient_Swatch_16-6);}.cls-15{fill:url(#New_Gradient_Swatch_8-7);}.cls-16{fill:url(#New_Gradient_Swatch_16-7);}.cls-17{fill:url(#New_Gradient_Swatch_61-2);}.cls-18{fill:url(#New_Gradient_Swatch_61-3);}.cls-19{fill:url(#New_Gradient_Swatch_61-4);}.cls-20{fill:url(#New_Gradient_Swatch_61-5);}.cls-21{fill:url(#New_Gradient_Swatch_8-8);}.cls-22{fill:url(#New_Gradient_Swatch_61-6);}.cls-23{fill:url(#New_Gradient_Swatch_8-9);}.cls-24{fill:url(#New_Gradient_Swatch_61-7);}.cls-25{fill:url(#New_Gradient_Swatch_16-8);}.cls-26{fill:url(#New_Gradient_Swatch_61-8);}.cls-27{fill:url(#New_Gradient_Swatch_16-9);}.cls-28{fill:url(#New_Gradient_Swatch_61-9);}.cls-29{fill:url(#New_Gradient_Swatch_8-10);}.cls-30{fill:url(#New_Gradient_Swatch_16-10);}.cls-31{fill:#f1f1f8;}</style>
 </defs>
 <title>logo</title>
 <g>
  <title>background</title>
  <rect fill="none" id="canvas_background" height="39.931" width="166.706" y="-1" x="-1"/>
 </g>
 <g>
  <title>Layer 1</title>
  <path id="svg_1" d="m30.359,12.823c-0.114,-0.194 -0.232,-0.394 -0.359,-0.594c-4.714,-7.318 -11.3,-12.909 -14.64,-12.162a5.518,5.518 0 0 0 -2.909,2.192a9.888,9.888 0 0 1 5.671,2.27a15.95,15.95 0 0 1 3.55,2.593c1.575,1.263 6.809,7.237 9.71,14.352c1.115,2.868 1.434,5.194 0.832,6.13l-0.02,0.03c-0.651,1.012 -3.216,1.7 -6.655,1.756a17.031,17.031 0 0 1 -1.2,3.26c5.486,0.2 10.016,-0.769 11.294,-2.792c1.787,-2.729 -0.665,-10.248 -5.274,-17.035z" class="cls-1"/>
  <path id="svg_2" d="m34.385,20.143q-0.409,-0.965 -0.9,-1.958a44.752,44.752 0 0 1 -1.676,4.492c0.755,2.3 0.917,4.124 0.4,4.925l-0.02,0.03a1.888,1.888 0 0 1 -0.535,0.513c1.295,-0.679 3.769,-1.881 2.731,-8.002z" class="cls-2"/>
  <path id="svg_3" d="m30.755,8.869l0.025,0.028c0.83,0.927 0.791,3.761 -0.132,7.3c-3.558,9.417 -5.384,10.522 -9.5,14.622c-2.807,2.263 -5.336,3.437 -6.508,3.053l-0.04,-0.014c-0.786,-0.257 -1.658,-1.444 -2.435,-3.251a39.614,39.614 0 0 1 -3.965,-1.344c1.255,4.521 3.141,7.874 5.157,8.514c3.021,1.018 9.4,-3.13 14.653,-9.179c6.657,-7.916 8.317,-19.715 5.79,-22.469c-1.629,-1.776 -6.29,-2.041 -11.74,-0.937a43.824,43.824 0 0 1 3.872,2.8c2.403,-0.145 4.189,0.169 4.823,0.877z" class="cls-1"/>
  <path id="svg_4" d="m33.943,19.142l-0.028,-0.06c0,0.009 0.008,0.02 0.013,0.03l0.015,0.03z" class="cls-3"/>
  <path id="svg_5" d="m34.347,20.059l-0.014,-0.03l0.012,0.027l0.002,0.003z" class="cls-4"/>
  <path id="svg_6" d="m34.333,20.029c-0.1,-0.239 -0.208,-0.479 -0.317,-0.721c0.063,0.14 0.123,0.278 0.184,0.417c0.043,0.098 0.09,0.204 0.133,0.304z" class="cls-5"/>
  <path id="svg_7" d="m34.386,20.154c1.49,3.541 2.114,6.7 1.637,8.688c0.01,-0.008 0.022,-0.015 0.03,-0.023c0.486,-1.972 -0.177,-5.142 -1.669,-8.67l0,0.005l0.002,0z" class="cls-6"/>
  <path id="svg_8" d="m33.489,18.185c0.148,0.3 0.289,0.6 0.427,0.9c-0.138,-0.3 -0.279,-0.599 -0.427,-0.9z" class="cls-7"/>
  <path id="svg_9" d="m34.345,20.053l-0.012,-0.024c-0.043,-0.1 -0.09,-0.2 -0.133,-0.3c0.048,0.1 0.1,0.215 0.145,0.324z" class="cls-8"/>
  <path id="svg_10" d="m34.345,20.053l-0.012,-0.024c-0.043,-0.1 -0.09,-0.2 -0.133,-0.3c0.048,0.1 0.1,0.215 0.145,0.324z" class="cls-9"/>
  <path id="svg_11" d="m32.066,27.796a1.279,1.279 0 0 0 0.128,-0.164a1.37,1.37 0 0 1 -0.128,0.164z" class="cls-10"/>
  <path id="svg_12" d="m32.066,27.796a1.279,1.279 0 0 0 0.128,-0.164a1.37,1.37 0 0 1 -0.128,0.164z" class="cls-11"/>
  <path id="svg_13" d="m34.386,20.154c1.033,6.111 -1.438,7.313 -2.727,7.991l0.013,-0.011c-1.111,0.762 -3.5,1.245 -6.507,1.259a44.4,44.4 0 0 1 -8.99,-1.623a9.052,9.052 0 0 0 0.177,1.357c0.037,0.175 0.08,0.348 0.126,0.519c8.243,2.233 17.182,1.176 19.545,-0.8c0.477,-1.989 -0.147,-5.151 -1.637,-8.692z" class="cls-12"/>
  <path id="svg_14" d="m31.914,27.946c0.031,-0.028 0.061,-0.056 0.089,-0.083c-0.028,0.027 -0.058,0.055 -0.089,0.083z" class="cls-13"/>
  <path id="svg_15" d="m31.914,27.946c0.031,-0.028 0.061,-0.056 0.089,-0.083c-0.028,0.027 -0.058,0.055 -0.089,0.083z" class="cls-14"/>
  <path id="svg_16" d="m33.915,19.083c-0.138,-0.3 -0.279,-0.6 -0.427,-0.9q0.229,0.466 0.44,0.927c-0.005,-0.008 -0.008,-0.018 -0.013,-0.027z" class="cls-15"/>
  <path id="svg_17" d="m33.915,19.083c-0.138,-0.3 -0.279,-0.6 -0.427,-0.9q0.229,0.466 0.44,0.927c-0.005,-0.008 -0.008,-0.018 -0.013,-0.027z" class="cls-16"/>
  <path id="svg_18" d="m34.385,20.148l0,0c-0.012,-0.029 -0.026,-0.056 -0.037,-0.085l0,0.007l0.037,0.078z" class="cls-17"/>
  <path id="svg_19" d="m34.016,19.305l-0.073,-0.163c0.014,0.029 0.025,0.057 0.038,0.086l0.035,0.077z" class="cls-18"/>
  <path id="svg_20" d="m31.673,28.129a2.342,2.342 0 0 0 0.241,-0.188a2.469,2.469 0 0 1 -0.241,0.188z" class="cls-19"/>
  <path id="svg_21" d="m32,27.863c0.023,-0.023 0.044,-0.045 0.063,-0.067c-0.017,0.022 -0.038,0.045 -0.063,0.067z" class="cls-20"/>
  <path id="svg_22" d="m33.981,19.229c-0.013,-0.028 -0.024,-0.057 -0.038,-0.086l-0.014,-0.03c0.018,0.038 0.034,0.076 0.052,0.116z" class="cls-21"/>
  <path id="svg_23" d="m33.981,19.229c-0.013,-0.028 -0.024,-0.057 -0.038,-0.086l-0.014,-0.03c0.018,0.038 0.034,0.076 0.052,0.116z" class="cls-22"/>
  <path id="svg_24" d="m34.349,20.066l0,-0.007l0,-0.005l0,0.012z" class="cls-23"/>
  <path id="svg_25" d="m34.349,20.066l0,-0.007l0,-0.005l0,0.012z" class="cls-24"/>
  <path id="svg_26" d="m34.2,19.723c-0.061,-0.139 -0.121,-0.277 -0.184,-0.417l-0.035,-0.077c0.075,0.165 0.146,0.329 0.219,0.494z" class="cls-25"/>
  <path id="svg_27" d="m34.2,19.723c-0.061,-0.139 -0.121,-0.277 -0.184,-0.417l-0.035,-0.077c0.075,0.165 0.146,0.329 0.219,0.494z" class="cls-26"/>
  <path id="svg_28" d="m34.386,20.154l0,-0.006l-0.036,-0.083c0.012,0.03 0.023,0.059 0.036,0.089z" class="cls-27"/>
  <path id="svg_29" d="m34.386,20.154l0,-0.006l-0.036,-0.083c0.012,0.03 0.023,0.059 0.036,0.089z" class="cls-28"/>
  <path id="svg_30" d="m34.386,20.154c-0.013,-0.03 -0.024,-0.059 -0.037,-0.088l0,-0.012c-0.047,-0.109 -0.1,-0.22 -0.145,-0.331c-0.072,-0.165 -0.144,-0.329 -0.219,-0.495c-0.018,-0.039 -0.034,-0.077 -0.052,-0.116q-0.212,-0.46 -0.44,-0.927a44.752,44.752 0 0 1 -1.676,4.492c0.755,2.3 0.917,4.124 0.4,4.925l-0.02,0.03a1.279,1.279 0 0 1 -0.128,0.164c-0.02,0.022 -0.041,0.045 -0.063,0.067s-0.058,0.055 -0.089,0.083a2.342,2.342 0 0 1 -0.241,0.188l-0.013,0.011c1.285,-0.679 3.756,-1.88 2.723,-7.991z" class="cls-29"/>
  <path id="svg_31" d="m34.386,20.154c-0.013,-0.03 -0.024,-0.059 -0.037,-0.088l0,-0.012c-0.047,-0.109 -0.1,-0.22 -0.145,-0.331c-0.072,-0.165 -0.144,-0.329 -0.219,-0.495c-0.018,-0.039 -0.034,-0.077 -0.052,-0.116q-0.212,-0.46 -0.44,-0.927a44.752,44.752 0 0 1 -1.676,4.492c0.755,2.3 0.917,4.124 0.4,4.925l-0.02,0.03a1.279,1.279 0 0 1 -0.128,0.164c-0.02,0.022 -0.041,0.045 -0.063,0.067s-0.058,0.055 -0.089,0.083a2.342,2.342 0 0 1 -0.241,0.188l-0.013,0.011c1.285,-0.679 3.756,-1.88 2.723,-7.991z" class="cls-30"/>
  <path id="svg_32" d="m33.984,19.235l0,-0.007c-0.018,-0.039 -0.034,-0.077 -0.052,-0.116l-0.009,-0.019c-0.138,-0.3 -0.281,-0.6 -0.431,-0.908a44.752,44.752 0 0 1 -1.676,4.492c0.755,2.3 0.917,4.124 0.4,4.925l-0.02,0.03a1.279,1.279 0 0 1 -0.128,0.164c-0.019,0.022 -0.039,0.042 -0.061,0.064s-0.051,0.048 -0.077,0.073l-0.014,0.013a2.536,2.536 0 0 1 -0.237,0.185l-0.006,0c-0.059,0.04 -0.124,0.08 -0.191,0.12l-0.051,0.029c-0.065,0.037 -0.133,0.072 -0.2,0.107l-0.07,0.034c-0.071,0.034 -0.144,0.067 -0.221,0.1l-0.078,0.031c-0.08,0.032 -0.161,0.064 -0.246,0.1l-0.009,0c-0.166,0.06 -0.346,0.115 -0.533,0.168c-0.058,0.016 -0.115,0.034 -0.175,0.049l-0.2,0.049l-0.24,0.057l-0.182,0.038c-0.1,0.02 -0.2,0.04 -0.3,0.059l-0.156,0.028q-0.193,0.033 -0.394,0.062l-0.088,0.014a22.107,22.107 0 0 1 -2.348,0.2l0,0q-0.32,0.011 -0.653,0.014q0.626,-0.743 1.237,-1.528a36.656,36.656 0 0 0 6.777,-17.951c0.53,0.158 1.047,0.33 1.537,0.526c0.029,-1.936 -0.315,-3.459 -1.088,-4.31c-1.162,-1.323 -3.982,-1.8 -7.541,-1.533l-0.106,0.009c-0.206,0.016 -0.414,0.035 -0.626,0.056l-0.178,0.018c-0.207,0.022 -0.415,0.046 -0.626,0.073l-0.143,0.017q-0.376,0.05 -0.76,0.108l-0.221,0.037q-0.273,0.044 -0.549,0.092l-0.32,0.058l-0.465,0.089l-0.21,0.04l0,0a44.157,44.157 0 0 0 -5.954,1.659c-0.217,0.061 -0.435,0.124 -0.657,0.2c-6.3,2.06 -11.906,5.446 -14.264,8.468l-0.018,0.023a6.117,6.117 0 0 0 -0.984,1.728l-0.006,0.018a3.565,3.565 0 0 0 -0.108,0.392l0,0.02a2.862,2.862 0 0 0 -0.065,0.451c-0.106,1.771 1.569,4.134 4.3,6.492a7.332,7.332 0 0 1 -0.088,-1.113a42.743,42.743 0 0 0 8.716,4.924a29.547,29.547 0 0 0 3.549,1.193l0,0.005c0.156,0.042 0.313,0.081 0.469,0.121c0.057,0.014 0.115,0.029 0.172,0.044c-0.214,-0.053 -0.428,-0.108 -0.641,-0.165a9.02,9.02 0 0 0 0.887,2.12c0.632,0.166 1.264,0.309 1.9,0.434c-2.017,1.334 -3.723,1.964 -4.624,1.669l-0.04,-0.016c-0.786,-0.257 -1.658,-1.444 -2.435,-3.251c-1.192,-0.336 -2.33,-0.717 -3.4,-1.128l-0.547,-0.169c1.243,4.454 3.1,7.761 5.086,8.444c1.9,0.566 5.4,-1.553 9.022,-5.1c6.387,0.629 12.046,-0.721 13.3,-2.8a3.588,3.588 0 0 0 0.394,-1.014c-0.08,0.067 -0.169,0.132 -0.263,0.2c0.094,-0.064 0.183,-0.13 0.263,-0.2l0,0l0.03,-0.023c0.531,-2.139 -0.294,-5.688 -2.066,-9.582zm0.916,10.273c0.114,-0.052 0.224,-0.1 0.328,-0.158a8.168,8.168 0 0 1 -0.858,0.375c0.113,-0.042 0.222,-0.086 0.327,-0.131c0.073,-0.029 0.141,-0.057 0.203,-0.086zm-1.268,0.466l0.166,-0.053q0.189,-0.059 0.367,-0.122q-0.506,0.179 -1.1,0.333q0.3,-0.076 0.571,-0.158l-0.004,0zm-0.73,0.2l0.098,-0.025c-0.205,0.053 -0.42,0.1 -0.639,0.151l0.046,-0.01c0.169,-0.038 0.337,-0.077 0.499,-0.117l-0.004,0.001zm-0.673,0.155c-0.485,0.1 -1,0.191 -1.545,0.267l0.1,-0.013c0.51,-0.075 0.994,-0.16 1.449,-0.254l-0.004,0zm-2.335,0.368q0.39,-0.044 0.763,-0.1q-0.381,0.054 -0.779,0.1l0.016,0zm-0.028,0c-0.569,0.063 -1.164,0.112 -1.778,0.145c0.619,-0.031 1.212,-0.08 1.783,-0.142l-0.005,-0.003zm-21.174,-6.768a17.888,17.888 0 0 1 -3.836,-3.663c-0.056,-0.079 -0.11,-0.157 -0.156,-0.237c-0.014,-0.02 -0.026,-0.04 -0.039,-0.061a4.973,4.973 0 0 1 -0.344,-0.623c-0.02,-0.044 -0.04,-0.087 -0.057,-0.129s-0.033,-0.085 -0.048,-0.128s-0.032,-0.094 -0.046,-0.14s-0.021,-0.074 -0.03,-0.11c-0.013,-0.052 -0.022,-0.1 -0.03,-0.152c0,-0.029 -0.01,-0.058 -0.013,-0.086a1.39,1.39 0 0 1 -0.008,-0.222l0,-0.033a1.388,1.388 0 0 1 0.026,-0.194c0,-0.021 0.009,-0.042 0.014,-0.063c0.011,-0.049 0.026,-0.1 0.042,-0.148c0.007,-0.023 0.014,-0.045 0.023,-0.068c0.025,-0.068 0.053,-0.138 0.086,-0.208c0.009,-0.019 0.02,-0.039 0.03,-0.059c0.027,-0.053 0.055,-0.108 0.087,-0.163c0.019,-0.033 0.039,-0.066 0.059,-0.1s0.055,-0.088 0.085,-0.132s0.047,-0.072 0.073,-0.109s0.075,-0.1 0.114,-0.154s0.1,-0.13 0.155,-0.2l0.081,-0.1c0.044,-0.051 0.09,-0.1 0.137,-0.156l0.07,-0.076c0.176,-0.186 0.374,-0.386 0.591,-0.586l0.024,-0.022c0.078,-0.072 0.158,-0.144 0.241,-0.217l0,0q0.256,-0.225 0.543,-0.454l0,0a21.627,21.627 0 0 1 1.834,-1.307a75.6,75.6 0 0 1 16.265,-5.737c0.438,-0.05 0.859,-0.084 1.265,-0.107l0,0a15.172,15.172 0 0 1 2.412,0.032l0.009,0c0.114,0.011 0.224,0.025 0.332,0.04l0.01,0a6.679,6.679 0 0 1 0.881,0.18l0.01,0c0.06,0.018 0.117,0.037 0.174,0.056c0.036,0.011 0.072,0.023 0.106,0.035l0.136,0.057c0.04,0.016 0.079,0.033 0.117,0.05s0.075,0.035 0.111,0.054s0.078,0.041 0.115,0.062s0.06,0.035 0.089,0.053s0.077,0.053 0.113,0.08c0.021,0.016 0.043,0.031 0.063,0.047a1.394,1.394 0 0 1 0.146,0.139l0.026,0.027a1.34,1.34 0 0 1 0.154,0.211l0,0a2.074,2.074 0 0 1 0.129,0.257c0.518,1.226 0.384,3.761 -0.416,6.827c-3.021,8 -4.795,10 -7.782,12.933c-7.919,-1.015 -9.591,-2.496 -14.173,-5.196zm12.674,6.67c-1.031,-0.129 -2.073,-0.3 -3.113,-0.526q0.452,0.1 0.905,0.181l0.142,0.027q1.034,0.189 2.061,0.317l0,0l0.005,0.001zm-4.2,-0.776q0.487,0.121 0.976,0.227l0.076,0.015q-0.532,-0.113 -1.057,-0.243l0.005,0.001zm6.908,1.018l0,0q1.035,0.056 2.03,0.056l0.027,0q0.977,0 1.9,-0.05a37.182,37.182 0 0 1 -3.962,-0.006l0.005,0zm11.247,-1.536l0.088,-0.048c0.071,-0.04 0.138,-0.079 0.2,-0.12l0.04,-0.026q-0.157,0.099 -0.333,0.193l0.005,0.001z" class="cls-1"/>
  <path id="svg_33" d="m33.489,18.185a44.752,44.752 0 0 1 -1.676,4.492c0.755,2.3 0.917,4.124 0.4,4.925l-0.02,0.03c-0.674,1.048 -3.4,1.746 -7.029,1.761c-7.687,-0.793 -10.348,-1.864 -13.464,-3.672c-0.728,-0.423 -1.485,-0.885 -2.334,-1.393l-0.674,-0.399a20.2,20.2 0 0 1 -3.351,-3.039l0,0a4.213,4.213 0 0 1 -1.259,-2.507l0,-0.038c0.043,-0.832 0.955,-1.987 2.485,-3.211a40.5,40.5 0 0 1 0.264,-4.205c-4.008,2.389 -6.731,5.094 -6.831,7.221c-0.158,2.627 3.6,6.552 8.9,9.836l0.014,0.009q0.406,0.251 0.824,0.5l0.086,0.051q0.43,0.252 0.87,0.5l0.036,0.019q0.4,0.222 0.807,0.436l0.19,0.1c0.287,0.15 0.575,0.3 0.867,0.443l0.113,0.051l0,0c9.293,4.356 21.093,2.661 22.923,-0.239c1.323,-2.019 0.327,-6.652 -2.141,-11.671z" class="cls-1"/>
  <path id="svg_34" d="m14.638,33.869l-0.038,-0.011c-1.18,-0.386 -2.552,-2.859 -3.507,-6.387c-1.59,-9.947 -0.558,-11.824 0.976,-17.45c1.308,-3.374 2.916,-5.665 4.121,-5.925l0.036,-0.006c0.808,-0.174 2.152,0.415 3.72,1.587a40.056,40.056 0 0 1 4.1,-0.833c-3.326,-3.284 -6.623,-5.238 -8.686,-4.777c-3.121,0.642 -6.585,7.448 -8.136,15.335c-1.834,10.208 2.661,21.327 6.137,22.375c2.3,0.692 6.46,-1.4 10.633,-5.1a43.64,43.64 0 0 1 -4.74,-0.469c-2.013,1.328 -3.716,1.956 -4.616,1.661z" class="cls-1"/>
  <path id="svg_35" d="m15.42,0.058c-2.691,0.653 -5.478,7.386 -6.585,15.258c-1.235,9.794 2.751,20.613 5.63,22.607c2.385,-0.045 5.958,-2.081 9.528,-5.249a43.64,43.64 0 0 1 -4.74,-0.469c-2.012,1.332 -3.715,1.96 -4.615,1.665l-0.038,-0.012c-1.18,-0.386 -2.552,-2.859 -3.507,-6.387c-1.59,-9.947 -0.558,-11.824 0.976,-17.45c1.308,-3.374 2.916,-5.665 4.121,-5.925l0.036,-0.006c0.808,-0.174 2.152,0.415 3.72,1.587c1.2,-0.307 2.374,-0.552 3.508,-0.737l0.557,-0.129c-3.283,-3.233 -6.531,-5.164 -8.591,-4.753z" class="cls-1"/>
  <path id="svg_36" d="m22.348,34.052c0.545,-0.432 1.1,-0.891 1.646,-1.379a43.64,43.64 0 0 1 -4.74,-0.469c-2.012,1.332 -3.715,1.96 -4.615,1.665l-0.039,-0.011a1.884,1.884 0 0 1 -0.63,-0.387c0.987,1.079 2.78,3.176 8.378,0.581z" class="cls-1"/>
  <path id="svg_37" d="m24.015,4.811l-0.015,-0.016a6.918,6.918 0 0 0 -6.043,-1.315a8.226,8.226 0 0 0 -1.906,0.661c0.048,-0.016 0.1,-0.034 0.143,-0.045l0.036,-0.006c0.808,-0.174 2.152,0.415 3.72,1.587c1.2,-0.307 2.374,-0.552 3.508,-0.737l0.557,-0.129z" class="cls-1"/>
  <text font-weight="bold" stroke="null" transform="matrix(1.227059309661302,0,0,1.5784587446676774,-7.164729070420546,-0.4768364521942573) " xml:space="preserve" text-anchor="start" font-family="'Trebuchet MS', Gadget, sans-serif" font-size="20" id="svg_42" y="19.86558" x="37.85005" stroke-opacity="null" stroke-width="1.5" fill="#FFEBFF">LenoBot.ai</text>
 </g>
</svg>